<?xml version="1.0" encoding="UTF-8"?>
<svg version="1.1" xmlns="http://www.w3.org/2000/svg" width="128" height="128">
<path d="M0 0 C0.99 0.33 1.98 0.66 3 1 C2.51421457 4.12290635 2.0013988 6.99580359 1 10 C0.4955551 15.26772793 0.28194885 19.61518706 2.75 24.375 C3.86375 25.674375 3.86375 25.674375 5 27 C7.78026434 30.28576694 9.50773073 33.11097031 11.0859375 37.1171875 C12.1499978 39.30896983 13.48354603 41.03259477 15 42.9375 C20.04369254 49.44549038 21.45538709 55.88714568 22 64 C23.485 64.495 23.485 64.495 25 65 C26.7890625 67.46875 26.7890625 67.46875 28.625 70.5 C30.56639726 73.93547657 30.56639726 73.93547657 33 77 C44.87690688 78.54805837 55.51313447 73.77058298 65.34375 67.5859375 C67.84449417 66.09284613 70.27006575 64.99899768 73 64 C73.99 64.99 74.98 65.98 76 67 C72.91665404 76.70553218 61.56607485 85.08833673 53 90 C52.34 90 51.68 90 51 90 C51 90.66 51 91.32 51 92 C59.33161903 94.19791177 67.39234593 96.25796086 76 97 C76.66 97.33 77.32 97.66 78 98 C78 99.65 78 101.3 78 103 C67.1561047 106.96727877 56.5167826 106.60739669 45.3125 104.6875 C44.61205566 104.56987305 43.91161133 104.45224609 43.18994141 104.33105469 C39.57350876 103.66610046 36.29118449 102.781914 32.87890625 101.40234375 C29.34202528 100.00900074 26.45753234 99.71088652 22.625 99.875 C15.21638783 100.05548823 8.25620002 99.45124 1 98 C-0.56213561 97.8705257 -2.12469658 97.74614755 -3.6875 97.625 C-12.86155026 96.71168445 -20.15170031 94.33627729 -27 88 C-28.34294481 86.34106818 -29.67744688 84.67523395 -31 83 C-31.969375 82.484375 -32.93875 81.96875 -33.9375 81.4375 C-38.01192265 78.19459217 -38.97074422 74.75727015 -40.77734375 69.96484375 C-41.85145442 67.36021116 -42.91623306 65.45864503 -44.625 63.25 C-50.39743772 55.63839442 -50.38496031 48.35310972 -50 39 C-47.62109375 39.203125 -47.62109375 39.203125 -45 40 C-43.84765625 42.109375 -43.84765625 42.109375 -43.0625 44.75 C-41.22650955 49.91141893 -39.61278621 52.04781682 -35 55 C-30.79667607 56.77473677 -26.41990012 57.58668569 -21.953125 58.4375 C-20 59 -20 59 -18 61 C-15.67724823 61.40047444 -13.34260643 61.7397104 -11 62 C-11.31839844 61.29359375 -11.63679688 60.5871875 -11.96484375 59.859375 C-13.04712169 56.86983746 -13.36576803 54.41445468 -13.5625 51.25 C-13.85123043 46.81553641 -14.32057118 42.50552935 -15.109375 38.1328125 C-15 36 -15 36 -13.56640625 33.1875 C-11.79890393 29.59078705 -11.50424438 26.85330943 -11.1875 22.875 C-10.24701065 14.86108238 -8.04784637 6.81159074 -1.9921875 1.109375 C-1.33476563 0.74328125 -0.67734375 0.3771875 0 0 Z " fill="#050301" transform="translate(50,11)"/>
<path d="M0 0 C4.08283904 0.08764592 6.59270595 1.07281941 9.76953125 3.6171875 C14.04429128 8.29758169 16.33756878 14.1945587 17.375 20.375 C18.695 20.705 20.015 21.035 21.375 21.375 C22.30923645 24.38531744 22.41949911 25.24150268 21.375 28.375 C23.32221901 32.28188032 25.87458909 35.80298441 28.375 39.375 C28.81972656 40.02210937 29.26445313 40.66921875 29.72265625 41.3359375 C38.22556001 52.41311488 52.84941436 59.43989386 66.375 61.375 C66.375 61.705 66.375 62.035 66.375 62.375 C45.80891736 63.38094969 29.10513227 59.18448914 12.921875 45.70703125 C3.10707229 36.72016435 -8.25532224 25.83770805 -9 11.875 C-8.88820521 5.85840763 -6.29730988 0.65144585 0 0 Z " fill="#E24438" transform="translate(49.625,49.625)"/>
<path d="M0 0 C4.05386292 2.96277946 6.80669088 7.32136613 9.78515625 11.3046875 C11.75232395 13.66863001 13.76702644 15.98383822 15.78515625 18.3046875 C5.99902741 18.95709609 -2.69453129 16.03819442 -11.21484375 11.3046875 C-10.52897875 14.39441036 -10.52897875 14.39441036 -8.2109375 15.62109375 C-1.69446229 18.79476641 4.23345587 20.89867047 11.44140625 21.72265625 C12.10309814 21.79911377 12.76479004 21.87557129 13.4465332 21.9543457 C15.39461228 22.17100759 17.34575776 22.35953586 19.296875 22.546875 C23.13252488 23.38015168 24.96186304 24.63794401 27.78515625 27.3046875 C26.78613281 27.36527344 25.78710938 27.42585938 24.7578125 27.48828125 C23.46746094 27.57207031 22.17710938 27.65585938 20.84765625 27.7421875 C19.55988281 27.82339844 18.27210937 27.90460938 16.9453125 27.98828125 C13.92491668 27.95387938 13.92491668 27.95387938 12.78515625 29.3046875 C10.41015625 29.5546875 10.41015625 29.5546875 7.78515625 29.3046875 C7.36234375 28.83160156 6.93953125 28.35851562 6.50390625 27.87109375 C4.08101365 25.66295754 1.86547944 25.54914082 -1.33984375 24.9921875 C-9.18771315 23.31237599 -14.50053909 20.41620748 -19.77734375 14.3671875 C-21.53977271 10.61244754 -21.88566946 8.40417795 -21.21484375 4.3046875 C-15.80495517 -2.42111993 -7.81813598 -3.73988282 0 0 Z " fill="#E14338" transform="translate(43.21484375,78.6953125)"/>
<path d="M0 0 C5.28808106 0.93550782 7.83161984 2.78066067 11.03515625 7.05859375 C12.05416016 8.39083984 12.05416016 8.39083984 13.09375 9.75 C13.75503906 10.61496094 14.41632812 11.47992188 15.09765625 12.37109375 C17.06756447 14.73248479 19.07967242 17.05041234 21.09765625 19.37109375 C11.31152741 20.02350234 2.61796871 17.10460067 -5.90234375 12.37109375 C-5.90234375 13.03109375 -5.90234375 13.69109375 -5.90234375 14.37109375 C-6.89234375 14.37109375 -7.88234375 14.37109375 -8.90234375 14.37109375 C-9.80616154 9.86182892 -10.46169896 6.56276354 -8.46484375 2.30859375 C-5.55441392 0.10802485 -3.62211033 -0.12241725 0 0 Z " fill="#E44539" transform="translate(37.90234375,77.62890625)"/>
<path d="M0 0 C1.8871875 0.0309375 1.8871875 0.0309375 3.8125 0.0625 C3.8125 0.3925 3.8125 0.7225 3.8125 1.0625 C2.141875 1.4646875 2.141875 1.4646875 0.4375 1.875 C-3.40590951 2.72059019 -3.40590951 2.72059019 -5.1875 6.0625 C-5.65823163 10.249534 -5.02624824 13.82046615 -2.66015625 17.32421875 C-0.90667479 19.32978634 0.89603713 21.2129878 2.8125 23.0625 C3.8125 24.0625 4.8125 25.0625 5.8125 26.0625 C-1.51705633 24.05908794 -6.26242885 21.76759012 -11.0625 15.6875 C-12.56813272 12.17435698 -12.72842056 9.84894394 -12.1875 6.0625 C-8.56191583 1.55501697 -5.7246317 -0.09384642 0 0 Z " fill="#CA2F2B" transform="translate(34.1875,76.9375)"/>
<path d="M0 0 C3 1 3 1 4.4375 3.73828125 C4.953125 4.91777344 5.46875 6.09726563 6 7.3125 C9.65509231 15.21705839 14.85615703 20.92747859 21 27 C23 29 23 29 23 32 C16.1427373 30.98410923 11.99961104 24.92597091 8.00390625 19.79296875 C3.47687643 13.48336578 -0.46622037 7.97236832 0 0 Z " fill="#0E0403" transform="translate(48,61)"/>
<path d="M0 0 C2.7748211 1.38741055 2.80749636 2.8590108 3.8125 5.75 C5.55327946 10.34828538 7.36912371 12.77255441 11 16 C11 16.66 11 17.32 11 18 C10.41992188 17.95359375 9.83984375 17.9071875 9.2421875 17.859375 C3.40942269 17.58987432 0.5242125 18.28782564 -4 22 C-3.125 15.25 -3.125 15.25 -2 13 C-1.68567477 9.88730709 -1.48910126 6.77382422 -1.28125 3.65234375 C-1 1 -1 1 0 0 Z " fill="#2B983E" transform="translate(44,29)"/>
<path d="M0 0 C0.66 0.33 1.32 0.66 2 1 C1.484375 1.94875 0.96875 2.8975 0.4375 3.875 C-2.16952589 10.03254686 -0.85743927 16.36464954 1.5 22.4375 C4.69685664 29.06801748 9.82279197 34.82279197 15 40 C14.67 40.99 14.34 41.98 14 43 C-5.57775681 22.41200307 -5.57775681 22.41200307 -5.33203125 9.1875 C-4.74747107 5.33627998 -2.74068867 2.74068867 0 0 Z " fill="#CF302C" transform="translate(46,50)"/>
<path d="M0 0 C0.93972656 0.63228516 0.93972656 0.63228516 1.8984375 1.27734375 C3.12433594 2.09912109 3.12433594 2.09912109 4.375 2.9375 C5.18710938 3.48277344 5.99921875 4.02804688 6.8359375 4.58984375 C10.6453494 7.07215006 13.53607439 7.28511279 18.00390625 7.62109375 C18.66261719 7.74613281 19.32132813 7.87117188 20 8 C20.33 8.66 20.66 9.32 21 10 C20.071875 10.495 19.14375 10.99 18.1875 11.5 C14.12263161 14.15225455 13.35833325 17.4722225 12 22 C8.36770457 19.57846971 8.64919217 18.41192039 7.8046875 14.3671875 C6.46944883 10.43925239 3.94864311 7.38127234 1.4609375 4.1015625 C0 2 0 2 0 0 Z " fill="#2D9F40" transform="translate(6,65)"/>
<path d="M0 0 C0.66 0.33 1.32 0.66 2 1 C-3.29182497 5.99619229 -9.11156085 11.38754774 -16 14 C-19.89132043 12.9505691 -22.29568483 9.8545549 -25 7 C-23.94941406 6.82984375 -22.89882812 6.6596875 -21.81640625 6.484375 C-14.66075701 5.26762493 -8.08112537 4.12430618 -1.6015625 0.671875 C-0.80878906 0.33929688 -0.80878906 0.33929688 0 0 Z " fill="#D84136" transform="translate(112,86)"/>
<path d="M0 0 C2.1464753 0.11344376 4.29220592 0.24106345 6.4375 0.375 C8.22994141 0.47941406 8.22994141 0.47941406 10.05859375 0.5859375 C11.02925781 0.72257812 11.99992187 0.85921875 13 1 C13.33 1.66 13.66 2.32 14 3 C8.375 6.875 8.375 6.875 5 8 C2.525 4.04 2.525 4.04 0 0 Z " fill="#39B753" transform="translate(13,72)"/>
<path d="M0 0 C3.5218253 1.95656961 6.34442785 3.95100975 9 7 C9 7.66 9 8.32 9 9 C5.37 9 1.74 9 -2 9 C-1.34 6.03 -0.68 3.06 0 0 Z " fill="#39B653" transform="translate(46,38)"/>
<path d="M0 0 C3.39192363 0.59283621 5.2107757 1.76743189 7.75 4.0625 C8.67039062 4.88427734 8.67039062 4.88427734 9.609375 5.72265625 C10.29773438 6.35494141 10.29773438 6.35494141 11 7 C7.41584854 7 6.58796261 6.21108216 3.8125 4.0625 C3.09707031 3.51722656 2.38164063 2.97195312 1.64453125 2.41015625 C1.10183594 1.94480469 0.55914062 1.47945313 0 1 C0 0.67 0 0.34 0 0 Z " fill="#C32E2A" transform="translate(61,93)"/>
</svg>
